<svg id="Layer_1" data-name="Layer 1" xmlns="http://www.w3.org/2000/svg" viewBox="0 0 600 600"><defs><style>.cls-1{fill:#00f4b1;}.cls-2{fill:#0fb;}</style></defs><title>Phycoworks_logo</title><path class="cls-1" d="M300,544A244,244,0,0,1,127.47,127.47,244,244,0,0,1,472.53,472.53,242.4,242.4,0,0,1,300,544Zm0-459.86C181,84.13,84.13,181,84.13,300S181,515.87,300,515.87,515.87,419,515.87,300,419,84.13,300,84.13Z"/><path class="cls-1" d="M347.22,424.68a54.77,54.77,0,1,0,0-77.46,54.77,54.77,0,0,0,0,77.46"/><path class="cls-1" d="M175.12,252.57a54.77,54.77,0,1,0,0-77.46,54.77,54.77,0,0,0,0,77.46"/><path class="cls-2" d="M289.38,346.18c0-28.47,28.18-57.07,56.22-57.09,31.74,0,63.88,9.22,87.57-14.48A76.22,76.22,0,1,0,325.38,166.82c-23.1,23.1-15.2,54.56-15.52,85.4-0.29,28.81-27.95,58-56.1,58.37-31.48.38-63.42-8.73-86.94,14.79A76.22,76.22,0,1,0,274.62,433.18C298.15,409.64,289.38,377.68,289.38,346.18Z"/></svg>