<svg id="Layer_1" data-name="Layer 1" xmlns="http://www.w3.org/2000/svg" viewBox="0 0 1080 336.96"><defs><style>.cls-1{fill:#0fb;}</style></defs><title>Phycoworks_logo</title><path class="cls-1" d="M60.71,193.93c0-24.78,16.22-37.79,37.07-37.79s37.07,14.79,37.07,37.79c0,24.78-16.22,37.79-37.07,37.79-6.06,0-16-2.67-20.68-8.73v57.57a2.26,2.26,0,0,1-2.5,2.5H63.21a2.26,2.26,0,0,1-2.5-2.5V193.93ZM97.78,216c9.09,0,20.68-4.28,20.68-22.1s-11.59-22.1-20.68-22.1-20.68,4.28-20.68,22.1S88.69,216,97.78,216Z"/><path class="cls-1" d="M171,190.54v36.54a2.26,2.26,0,0,1-2.5,2.5H157.13a2.26,2.26,0,0,1-2.5-2.5V107.3a2.26,2.26,0,0,1,2.5-2.5h11.41a2.26,2.26,0,0,1,2.5,2.5V164c4.46-4.81,10.87-7.84,19.25-7.84,19.78,0,34.22,11.41,34.22,35.65v35.29a2.26,2.26,0,0,1-2.5,2.5H210.61a2.26,2.26,0,0,1-2.5-2.5V191.79c0-17.11-9.62-20-17.82-20C182.27,171.83,171.57,175.39,171,190.54Z"/><path class="cls-1" d="M252.49,277.17c-1.43-.53-1.78-1.6-1.25-3.21l19.43-44.38L240,160.6a1.54,1.54,0,0,1,1.43-2.32h13.19A3.27,3.27,0,0,1,258,160.6l21.57,50.09,21.75-50.09a3.63,3.63,0,0,1,3.56-2.32h12.83a1.54,1.54,0,0,1,1.43,2.32L266.57,279.48c-0.89,1.6-2,2-3.39,1.43Z"/><path class="cls-1" d="M400.25,209.26a2.5,2.5,0,0,1,1.43,3.21c-5.7,12.83-18.54,19.25-33.51,19.25-20.85,0-37.07-13.55-37.07-37.79,0-25,16.22-37.79,37.07-37.79,15.69,0,28.87,7.13,34,20.85,0.53,1.25-.18,2.5-1.6,3l-10.69,3a2.24,2.24,0,0,1-3.21-1.6c-3.92-7.31-12.3-9.63-18.54-9.63-9.09,0-20.68,4.28-20.68,22.1S359.07,216,368.16,216c6.24,0,13.9-2.32,18-9.27,0.89-1.6,2-2,3.39-1.43Z"/><path class="cls-1" d="M453.54,231.72c-20.85,0-37.07-13-37.07-37.79s16.22-37.79,37.07-37.79,37.07,13,37.07,37.79S474.39,231.72,453.54,231.72Zm0-59.89c-9.09,0-20.68,4.28-20.68,22.1S444.45,216,453.54,216s20.68-4.28,20.68-22.1S462.63,171.83,453.54,171.83Z"/><path class="cls-1" d="M592.38,227.26a3.27,3.27,0,0,1-3.39,2.32H576.7a3.42,3.42,0,0,1-3.21-2.32l-15.15-45.63-15.15,45.63a3.43,3.43,0,0,1-3.21,2.32h-12.3a3.27,3.27,0,0,1-3.39-2.32L501.48,160.6a1.62,1.62,0,0,1,1.6-2.32h12.48a3.43,3.43,0,0,1,3.21,2.32l15,45.81,15.15-45.81a3.43,3.43,0,0,1,3.21-2.32h12.48a3.43,3.43,0,0,1,3.21,2.32l15,45.81,15.15-45.81a3.43,3.43,0,0,1,3.21-2.32H613.6a1.62,1.62,0,0,1,1.6,2.32Z"/><path class="cls-1" d="M663,231.72c-20.85,0-37.07-13-37.07-37.79s16.22-37.79,37.07-37.79,37.07,13,37.07,37.79S683.82,231.72,663,231.72Zm0-59.89c-9.09,0-20.68,4.28-20.68,22.1S653.87,216,663,216s20.68-4.28,20.68-22.1S672.05,171.83,663,171.83Z"/><path class="cls-1" d="M761,171.29a2.15,2.15,0,0,1-2.85,2,50.06,50.06,0,0,0-8.73-.89c-7.84,0-15,2.85-15,14.26v40.46a2.26,2.26,0,0,1-2.5,2.5H720.53a2.26,2.26,0,0,1-2.5-2.5V186.62c0-22.1,13.19-30.12,29.59-30.12a48.89,48.89,0,0,1,13.19,1.78c1.43,0.53,2.5,1.78,2,3.21Z"/><path class="cls-1" d="M819.63,193.93l24.24,33.69a1.23,1.23,0,0,1-1.07,2h-15a4.74,4.74,0,0,1-3.92-2l-17.65-25.85H794.14v25.31a2.26,2.26,0,0,1-2.5,2.5H780.24a2.26,2.26,0,0,1-2.5-2.5V107.3a2.25,2.25,0,0,1,2.5-2.5h11.41a2.26,2.26,0,0,1,2.5,2.5v78.78h12.12l17.65-25.67a4.28,4.28,0,0,1,3.92-2.14h15a1.23,1.23,0,0,1,1.07,2Z"/><path class="cls-1" d="M872.57,208.72c1.43-.36,2.5.18,3.39,1.78,2.67,4.1,8.56,5.88,13.55,5.88,7,0,13.55-2.85,13.55-7.84,0-13.19-43.31.18-43.31-28.7,0-17.47,15-23.71,29.77-23.71,12.12,0,24.24,4.1,28.52,17.47,0.53,1.25-.36,2.5-1.78,3L906.79,179q-1.87.53-3.21-1.6c-2.67-4.81-8.56-5.88-14.08-5.88-6.77,0-13.55,2-13.55,7.84,0,13,43.31-.36,43.31,29.23,0,17.29-15.51,23.17-29.77,23.17-12.12,0-25.31-4.1-28.7-17.47-0.36-1.6.36-2.5,2-3Z"/><path class="cls-1" d="M967.4,157.7a51.89,51.89,0,1,1,36.69-15.2A51.55,51.55,0,0,1,967.4,157.7Zm0-97.8a45.91,45.91,0,1,0,45.91,45.91A46,46,0,0,0,967.4,59.9Z"/><path class="cls-1" d="M977.44,132.32a11.65,11.65,0,1,0,0-16.47,11.65,11.65,0,0,0,0,16.47"/><path class="cls-1" d="M940.84,95.72a11.65,11.65,0,1,0,0-16.47,11.65,11.65,0,0,0,0,16.47"/><path class="cls-1" d="M965.14,115.63c0-6.05,6-12.14,12-12.14,6.75,0,13.59,2,18.62-3.08A16.21,16.21,0,1,0,972.8,77.48c-4.91,4.91-3.23,11.6-3.3,18.16-0.06,6.13-5.94,12.34-11.93,12.41-6.69.08-13.49-1.86-18.49,3.15A16.21,16.21,0,1,0,962,134.13C967,129.12,965.14,122.33,965.14,115.63Z"/></svg>